<svg xmlns="http://www.w3.org/2000/svg" width="42.066" height="31.128" viewBox="0 0 42.066 31.128">
  <g id="Group_2" data-name="Group 2" transform="translate(-533.382 -76)">
    <path id="Path_4" data-name="Path 4" d="M0,1.534V6.692s12.312-2.163,18.468,0,6.156,4.284,6.156,8.651,0,6.613-6.156,8.818S0,24.161,0,24.161V28.82s14.017,3.369,21.8,0,9.151-6.655,9.317-13.476S30.239,4.987,22.461,1.534,0,1.534,0,1.534Z" transform="translate(563.699 76) rotate(90)" fill="#4d2dda"/>
    <path id="Path_5" data-name="Path 5" d="M0,1.534V6.692s12.312-2.163,18.468,0,6.156,4.284,6.156,8.651,0,6.613-6.156,8.818S0,24.161,0,24.161V28.82s14.017,3.369,21.8,0,9.151-6.655,9.317-13.476S30.239,4.987,22.461,1.534,0,1.534,0,1.534Z" transform="translate(545.131 107.128) rotate(-90)" fill="#4d2dda"/>
  </g>
</svg>
